# xmcd
#
# Track frame offsets: 
#        150
#        15058
#        32767
#        49906
#        66667
#        79847
#        93316
#        106150
#        120664
#        131593
#        142276
#        158302
#        174889
#
# Disc length: 2536 seconds
#
# Revision: 0
# Processed by: cddbd v1.5.2PL0 Copyright (c) Steve Scherf et al.
# Submitted via: ExactAudioCopy v0.95a5
#
DISCID=a109e60d
DTITLE=Mimie Mathy - La vie m'a raconte
DYEAR=2006
DGENRE=Chanson
TTITLE0=La Vie M'a Raconte
TTITLE1=Sur Un Fil (En Duo Avec Patrick Fiori)
TTITLE2=Comme Par Hasard
TTITLE3=Le Bonheur En Desordre
TTITLE4=Le Grand Ecran Des Souvenirs
TTITLE5=Plus Le Temps D'attendre
TTITLE6=Miroir
TTITLE7=Le Bonheur
TTITLE8=L'abeille
TTITLE9=La Berceuse
TTITLE10=L'endroit De Son Reve
TTITLE11=Tout Changer
TTITLE12=J'apprendrai
EXTD=
EXTT0=
EXTT1=
EXTT2=
EXTT3=
EXTT4=
EXTT5=
EXTT6=
EXTT7=
EXTT8=
EXTT9=
EXTT10=
EXTT11=
EXTT12=
PLAYORDER=
